<svg width="796" height="296" viewBox="0 0 796 296" fill="none" xmlns="http://www.w3.org/2000/svg">
<g filter="url(#filter0_d_255_2)">
<mask id="path-1-outside-1_255_2" maskUnits="userSpaceOnUse" x="-2" y="-2" width="792" height="292" fill="black">
<rect fill="white" x="-2" y="-2" width="792" height="292"/>
<path d="M75 0V12.5H12.5V0H75ZM0 12.5H12.5V75H0V12.5ZM87.5 12.5V62.5H25V25H62.5V50H75V12.5H87.5ZM50 37.5H37.5V50H50V37.5ZM12.5 87.5V75H75V87.5H12.5ZM125 87.5V75H112.5V62.5H100V25H112.5V12.5H125V0H175V12.5H187.5V25H162.5V12.5H137.5V25H125V62.5H137.5V75H162.5V62.5H187.5V75H175V87.5H125ZM200 87.5V25H212.5V12.5H225V0H262.5V12.5H275V25H287.5V87.5H262.5V62.5H225V87.5H200ZM225 50H262.5V25H250V12.5H237.5V25H225V50ZM300 100V87.5H387.5V100H300ZM12.5 187.5V175H37.5V112.5H25V100H62.5V175H87.5V187.5H12.5ZM137.5 112.5V100H162.5V112.5H137.5ZM112.5 187.5V175H137.5V137.5H125V125H162.5V175H187.5V187.5H112.5ZM212.5 187.5V175H200V100H225V125H275V137.5H287.5V175H275V187.5H212.5ZM225 175H262.5V137.5H225V175ZM337.5 137.5H350V150H337.5V187.5H312.5V125H337.5V137.5ZM387.5 125V137.5H350V125H387.5ZM412.5 187.5V175H400V162.5H412.5V150H462.5V137.5H412.5V125H475V137.5H487.5V187.5H412.5ZM425 175H462.5V162.5H425V175ZM537.5 137.5H550V150H537.5V187.5H512.5V125H537.5V137.5ZM587.5 125V137.5H550V125H587.5ZM612.5 200V187.5H662.5V175H612.5V162.5H600V125H625V162.5H662.5V125H687.5V187.5H675V200H612.5ZM700 200V187.5H787.5V200H700ZM12.5 287.5V275H0V200H25V225H75V237.5H87.5V275H75V287.5H12.5ZM25 275H62.5V237.5H25V275ZM112.5 287.5V275H100V237.5H112.5V225H175V237.5H187.5V275H175V287.5H112.5ZM125 275H162.5V237.5H125V275ZM237.5 287.5V237.5H212.5V225H237.5V200H262.5V225H287.5V237.5H262.5V287.5H237.5Z"/>
</mask>
<path d="M75 0V12.5H12.5V0H75ZM0 12.5H12.5V75H0V12.5ZM87.5 12.5V62.5H25V25H62.5V50H75V12.5H87.5ZM50 37.5H37.5V50H50V37.5ZM12.5 87.5V75H75V87.5H12.5ZM125 87.5V75H112.5V62.5H100V25H112.5V12.5H125V0H175V12.5H187.5V25H162.5V12.5H137.5V25H125V62.5H137.5V75H162.5V62.5H187.5V75H175V87.5H125ZM200 87.5V25H212.5V12.5H225V0H262.5V12.5H275V25H287.5V87.5H262.5V62.5H225V87.5H200ZM225 50H262.5V25H250V12.5H237.5V25H225V50ZM300 100V87.5H387.5V100H300ZM12.5 187.5V175H37.5V112.5H25V100H62.5V175H87.5V187.5H12.5ZM137.5 112.5V100H162.5V112.5H137.5ZM112.5 187.5V175H137.5V137.5H125V125H162.5V175H187.5V187.5H112.5ZM212.5 187.5V175H200V100H225V125H275V137.5H287.5V175H275V187.5H212.5ZM225 175H262.5V137.5H225V175ZM337.5 137.5H350V150H337.5V187.5H312.5V125H337.5V137.5ZM387.5 125V137.5H350V125H387.5ZM412.5 187.5V175H400V162.5H412.5V150H462.5V137.5H412.5V125H475V137.5H487.5V187.5H412.5ZM425 175H462.5V162.5H425V175ZM537.5 137.5H550V150H537.5V187.5H512.5V125H537.5V137.5ZM587.5 125V137.5H550V125H587.5ZM612.5 200V187.5H662.5V175H612.5V162.5H600V125H625V162.5H662.5V125H687.5V187.5H675V200H612.5ZM700 200V187.5H787.5V200H700ZM12.5 287.5V275H0V200H25V225H75V237.5H87.5V275H75V287.5H12.5ZM25 275H62.5V237.5H25V275ZM112.5 287.5V275H100V237.5H112.5V225H175V237.5H187.5V275H175V287.5H112.5ZM125 275H162.5V237.5H125V275ZM237.5 287.5V237.5H212.5V225H237.5V200H262.5V225H287.5V237.5H262.5V287.5H237.5Z" fill="url(#paint0_linear_255_2)"/>
<path d="M75 0H77V-2H75V0ZM75 12.5V14.5H77V12.5H75ZM12.5 12.5H10.5V14.5H12.5V12.5ZM12.5 0V-2H10.5V0H12.5ZM0 12.5V10.5H-2V12.5H0ZM12.5 12.5H14.5V10.5H12.5V12.5ZM12.5 75V77H14.5V75H12.5ZM0 75H-2V77H0V75ZM87.5 12.5H89.5V10.5H87.5V12.5ZM87.5 62.5V64.5H89.5V62.5H87.5ZM25 62.5H23V64.5H25V62.5ZM25 25V23H23V25H25ZM62.5 25H64.5V23H62.5V25ZM62.5 50H60.5V52H62.5V50ZM75 50V52H77V50H75ZM75 12.5V10.5H73V12.5H75ZM50 37.5H52V35.5H50V37.5ZM37.5 37.5V35.5H35.5V37.5H37.5ZM37.5 50H35.5V52H37.5V50ZM50 50V52H52V50H50ZM12.5 87.5H10.5V89.5H12.5V87.5ZM12.5 75V73H10.5V75H12.5ZM75 75H77V73H75V75ZM75 87.5V89.5H77V87.5H75ZM73 0V12.5H77V0H73ZM75 10.5H12.5V14.5H75V10.5ZM14.5 12.5V0H10.5V12.5H14.5ZM12.5 2H75V-2H12.5V2ZM0 14.5H12.5V10.5H0V14.5ZM10.5 12.5V75H14.5V12.5H10.5ZM12.5 73H0V77H12.5V73ZM2 75V12.5H-2V75H2ZM85.5 12.5V62.5H89.5V12.5H85.5ZM87.5 60.5H25V64.5H87.5V60.5ZM27 62.5V25H23V62.5H27ZM25 27H62.5V23H25V27ZM60.5 25V50H64.5V25H60.5ZM62.5 52H75V48H62.5V52ZM77 50V12.5H73V50H77ZM75 14.5H87.5V10.5H75V14.5ZM50 35.5H37.5V39.5H50V35.5ZM35.5 37.5V50H39.5V37.5H35.5ZM37.5 52H50V48H37.5V52ZM52 50V37.5H48V50H52ZM14.5 87.5V75H10.5V87.5H14.5ZM12.5 77H75V73H12.5V77ZM73 75V87.5H77V75H73ZM75 85.5H12.5V89.5H75V85.5ZM125 87.5H123V89.5H125V87.5ZM125 75H127V73H125V75ZM112.5 75H110.5V77H112.5V75ZM112.5 62.5H114.5V60.5H112.5V62.5ZM100 62.5H98V64.5H100V62.5ZM100 25V23H98V25H100ZM112.5 25V27H114.5V25H112.5ZM112.5 12.5V10.5H110.5V12.5H112.5ZM125 12.5V14.5H127V12.5H125ZM125 0V-2H123V0H125ZM175 0H177V-2H175V0ZM175 12.5H173V14.5H175V12.5ZM187.5 12.5H189.5V10.5H187.5V12.5ZM187.5 25V27H189.5V25H187.5ZM162.5 25H160.5V27H162.5V25ZM162.5 12.5H164.5V10.5H162.5V12.5ZM137.5 12.5V10.5H135.5V12.5H137.5ZM137.5 25V27H139.5V25H137.5ZM125 25V23H123V25H125ZM125 62.5H123V64.5H125V62.5ZM137.5 62.5H139.5V60.5H137.5V62.5ZM137.5 75H135.5V77H137.5V75ZM162.5 75V77H164.5V75H162.5ZM162.5 62.5V60.5H160.5V62.5H162.5ZM187.5 62.5H189.5V60.5H187.5V62.5ZM187.5 75V77H189.5V75H187.5ZM175 75V73H173V75H175ZM175 87.5V89.5H177V87.5H175ZM127 87.5V75H123V87.5H127ZM125 73H112.5V77H125V73ZM114.5 75V62.5H110.5V75H114.5ZM112.5 60.5H100V64.5H112.5V60.5ZM102 62.5V25H98V62.5H102ZM100 27H112.5V23H100V27ZM114.5 25V12.5H110.5V25H114.5ZM112.5 14.5H125V10.5H112.5V14.5ZM127 12.5V0H123V12.5H127ZM125 2H175V-2H125V2ZM173 0V12.5H177V0H173ZM175 14.5H187.5V10.5H175V14.5ZM185.5 12.5V25H189.5V12.5H185.5ZM187.5 23H162.5V27H187.5V23ZM164.5 25V12.5H160.5V25H164.5ZM162.5 10.5H137.5V14.5H162.5V10.5ZM135.5 12.5V25H139.5V12.5H135.5ZM137.5 23H125V27H137.5V23ZM123 25V62.5H127V25H123ZM125 64.5H137.5V60.5H125V64.5ZM135.5 62.5V75H139.5V62.5H135.5ZM137.5 77H162.5V73H137.5V77ZM164.5 75V62.5H160.5V75H164.5ZM162.5 64.5H187.5V60.5H162.5V64.5ZM185.5 62.5V75H189.5V62.5H185.5ZM187.5 73H175V77H187.5V73ZM173 75V87.5H177V75H173ZM175 85.5H125V89.5H175V85.5ZM200 87.5H198V89.5H200V87.5ZM200 25V23H198V25H200ZM212.5 25V27H214.5V25H212.5ZM212.5 12.5V10.5H210.5V12.5H212.5ZM225 12.5V14.5H227V12.5H225ZM225 0V-2H223V0H225ZM262.5 0H264.5V-2H262.5V0ZM262.5 12.5H260.5V14.5H262.5V12.5ZM275 12.5H277V10.5H275V12.5ZM275 25H273V27H275V25ZM287.5 25H289.5V23H287.5V25ZM287.5 87.5V89.5H289.5V87.5H287.5ZM262.5 87.5H260.5V89.5H262.5V87.5ZM262.5 62.5H264.5V60.5H262.5V62.5ZM225 62.5V60.5H223V62.5H225ZM225 87.5V89.5H227V87.5H225ZM225 50H223V52H225V50ZM262.5 50V52H264.5V50H262.5ZM262.5 25H264.5V23H262.5V25ZM250 25H248V27H250V25ZM250 12.5H252V10.5H250V12.5ZM237.5 12.5V10.5H235.5V12.5H237.5ZM237.5 25V27H239.5V25H237.5ZM225 25V23H223V25H225ZM202 87.5V25H198V87.5H202ZM200 27H212.5V23H200V27ZM214.5 25V12.5H210.5V25H214.5ZM212.5 14.5H225V10.5H212.5V14.5ZM227 12.5V0H223V12.5H227ZM225 2H262.5V-2H225V2ZM260.5 0V12.5H264.5V0H260.5ZM262.5 14.5H275V10.5H262.5V14.5ZM273 12.5V25H277V12.5H273ZM275 27H287.5V23H275V27ZM285.5 25V87.5H289.5V25H285.5ZM287.5 85.5H262.5V89.5H287.5V85.5ZM264.5 87.5V62.5H260.5V87.5H264.5ZM262.5 60.5H225V64.5H262.5V60.5ZM223 62.5V87.5H227V62.5H223ZM225 85.5H200V89.5H225V85.5ZM225 52H262.5V48H225V52ZM264.5 50V25H260.5V50H264.5ZM262.5 23H250V27H262.5V23ZM252 25V12.5H248V25H252ZM250 10.5H237.5V14.5H250V10.5ZM235.5 12.5V25H239.5V12.5H235.5ZM237.5 23H225V27H237.5V23ZM223 25V50H227V25H223ZM300 100H298V102H300V100ZM300 87.5V85.5H298V87.5H300ZM387.5 87.5H389.5V85.5H387.5V87.5ZM387.5 100V102H389.5V100H387.5ZM302 100V87.5H298V100H302ZM300 89.5H387.5V85.5H300V89.5ZM385.5 87.5V100H389.5V87.5H385.5ZM387.5 98H300V102H387.5V98ZM12.5 187.5H10.5V189.5H12.5V187.5ZM12.5 175V173H10.5V175H12.5ZM37.5 175V177H39.5V175H37.5ZM37.5 112.5H39.5V110.5H37.5V112.5ZM25 112.5H23V114.5H25V112.5ZM25 100V98H23V100H25ZM62.5 100H64.5V98H62.5V100ZM62.5 175H60.5V177H62.5V175ZM87.5 175H89.5V173H87.5V175ZM87.5 187.5V189.5H89.5V187.5H87.5ZM14.5 187.5V175H10.5V187.5H14.5ZM12.5 177H37.5V173H12.5V177ZM39.5 175V112.5H35.5V175H39.5ZM37.5 110.5H25V114.5H37.5V110.5ZM27 112.5V100H23V112.5H27ZM25 102H62.5V98H25V102ZM60.5 100V175H64.5V100H60.5ZM62.5 177H87.5V173H62.5V177ZM85.5 175V187.5H89.5V175H85.5ZM87.5 185.5H12.5V189.5H87.5V185.5ZM137.5 112.5H135.5V114.5H137.5V112.5ZM137.5 100V98H135.5V100H137.5ZM162.5 100H164.5V98H162.5V100ZM162.5 112.5V114.5H164.5V112.5H162.5ZM112.5 187.5H110.5V189.5H112.5V187.5ZM112.5 175V173H110.5V175H112.5ZM137.5 175V177H139.5V175H137.5ZM137.5 137.5H139.5V135.5H137.5V137.5ZM125 137.5H123V139.5H125V137.5ZM125 125V123H123V125H125ZM162.5 125H164.5V123H162.5V125ZM162.5 175H160.5V177H162.5V175ZM187.5 175H189.5V173H187.5V175ZM187.5 187.5V189.5H189.5V187.5H187.5ZM139.5 112.5V100H135.5V112.5H139.5ZM137.5 102H162.5V98H137.5V102ZM160.5 100V112.5H164.5V100H160.5ZM162.5 110.5H137.5V114.5H162.5V110.5ZM114.5 187.5V175H110.5V187.5H114.5ZM112.5 177H137.5V173H112.5V177ZM139.5 175V137.5H135.5V175H139.5ZM137.5 135.5H125V139.5H137.5V135.5ZM127 137.5V125H123V137.5H127ZM125 127H162.5V123H125V127ZM160.5 125V175H164.5V125H160.5ZM162.5 177H187.5V173H162.5V177ZM185.5 175V187.5H189.5V175H185.5ZM187.5 185.5H112.5V189.5H187.5V185.5ZM212.5 187.5H210.5V189.5H212.5V187.5ZM212.5 175H214.5V173H212.5V175ZM200 175H198V177H200V175ZM200 100V98H198V100H200ZM225 100H227V98H225V100ZM225 125H223V127H225V125ZM275 125H277V123H275V125ZM275 137.5H273V139.5H275V137.5ZM287.5 137.5H289.5V135.5H287.5V137.5ZM287.5 175V177H289.5V175H287.5ZM275 175V173H273V175H275ZM275 187.5V189.5H277V187.5H275ZM225 175H223V177H225V175ZM262.5 175V177H264.5V175H262.5ZM262.5 137.5H264.5V135.5H262.5V137.5ZM225 137.5V135.5H223V137.5H225ZM214.5 187.5V175H210.5V187.5H214.5ZM212.5 173H200V177H212.5V173ZM202 175V100H198V175H202ZM200 102H225V98H200V102ZM223 100V125H227V100H223ZM225 127H275V123H225V127ZM273 125V137.5H277V125H273ZM275 139.5H287.5V135.5H275V139.5ZM285.5 137.5V175H289.5V137.5H285.5ZM287.5 173H275V177H287.5V173ZM273 175V187.5H277V175H273ZM275 185.5H212.5V189.5H275V185.5ZM225 177H262.5V173H225V177ZM264.5 175V137.5H260.5V175H264.5ZM262.5 135.5H225V139.5H262.5V135.5ZM223 137.5V175H227V137.5H223ZM337.5 137.5H335.5V139.5H337.5V137.5ZM350 137.5H352V135.5H350V137.5ZM350 150V152H352V150H350ZM337.5 150V148H335.5V150H337.5ZM337.5 187.5V189.5H339.5V187.5H337.5ZM312.5 187.5H310.5V189.5H312.5V187.5ZM312.5 125V123H310.5V125H312.5ZM337.5 125H339.5V123H337.5V125ZM387.5 125H389.5V123H387.5V125ZM387.5 137.5V139.5H389.5V137.5H387.5ZM350 137.5H348V139.5H350V137.5ZM350 125V123H348V125H350ZM337.5 139.5H350V135.5H337.5V139.5ZM348 137.5V150H352V137.5H348ZM350 148H337.5V152H350V148ZM335.5 150V187.5H339.5V150H335.5ZM337.5 185.5H312.5V189.5H337.5V185.5ZM314.5 187.5V125H310.5V187.5H314.5ZM312.5 127H337.5V123H312.5V127ZM335.5 125V137.5H339.5V125H335.5ZM385.5 125V137.5H389.5V125H385.5ZM387.5 135.5H350V139.5H387.5V135.5ZM352 137.5V125H348V137.5H352ZM350 127H387.5V123H350V127ZM412.5 187.5H410.5V189.5H412.5V187.5ZM412.5 175H414.5V173H412.5V175ZM400 175H398V177H400V175ZM400 162.5V160.5H398V162.5H400ZM412.5 162.5V164.5H414.5V162.5H412.5ZM412.5 150V148H410.5V150H412.5ZM462.5 150V152H464.5V150H462.5ZM462.5 137.5H464.5V135.5H462.5V137.5ZM412.5 137.5H410.5V139.5H412.5V137.5ZM412.5 125V123H410.5V125H412.5ZM475 125H477V123H475V125ZM475 137.5H473V139.5H475V137.5ZM487.5 137.5H489.5V135.5H487.5V137.5ZM487.5 187.5V189.5H489.5V187.5H487.5ZM425 175H423V177H425V175ZM462.5 175V177H464.5V175H462.5ZM462.5 162.5H464.5V160.5H462.5V162.5ZM425 162.5V160.5H423V162.5H425ZM414.5 187.5V175H410.5V187.5H414.5ZM412.5 173H400V177H412.5V173ZM402 175V162.5H398V175H402ZM400 164.5H412.5V160.5H400V164.5ZM414.5 162.5V150H410.5V162.5H414.5ZM412.5 152H462.5V148H412.5V152ZM464.5 150V137.5H460.5V150H464.5ZM462.5 135.5H412.5V139.5H462.5V135.5ZM414.5 137.5V125H410.5V137.5H414.5ZM412.5 127H475V123H412.5V127ZM473 125V137.5H477V125H473ZM475 139.5H487.5V135.5H475V139.5ZM485.5 137.5V187.5H489.5V137.5H485.5ZM487.5 185.5H412.5V189.5H487.5V185.5ZM425 177H462.5V173H425V177ZM464.5 175V162.5H460.5V175H464.5ZM462.5 160.5H425V164.5H462.5V160.5ZM423 162.5V175H427V162.5H423ZM537.5 137.5H535.5V139.5H537.5V137.5ZM550 137.5H552V135.5H550V137.5ZM550 150V152H552V150H550ZM537.5 150V148H535.5V150H537.5ZM537.5 187.5V189.5H539.5V187.5H537.5ZM512.5 187.5H510.5V189.5H512.5V187.5ZM512.5 125V123H510.5V125H512.5ZM537.5 125H539.5V123H537.5V125ZM587.5 125H589.5V123H587.5V125ZM587.5 137.5V139.5H589.5V137.5H587.5ZM550 137.5H548V139.5H550V137.5ZM550 125V123H548V125H550ZM537.5 139.5H550V135.5H537.5V139.5ZM548 137.5V150H552V137.5H548ZM550 148H537.5V152H550V148ZM535.5 150V187.5H539.5V150H535.5ZM537.5 185.5H512.5V189.5H537.5V185.5ZM514.5 187.5V125H510.5V187.5H514.5ZM512.5 127H537.5V123H512.5V127ZM535.5 125V137.5H539.5V125H535.5ZM585.5 125V137.5H589.5V125H585.5ZM587.5 135.5H550V139.5H587.5V135.5ZM552 137.5V125H548V137.5H552ZM550 127H587.5V123H550V127ZM612.5 200H610.5V202H612.5V200ZM612.5 187.5V185.5H610.5V187.5H612.5ZM662.5 187.5V189.5H664.5V187.5H662.5ZM662.5 175H664.5V173H662.5V175ZM612.5 175H610.5V177H612.5V175ZM612.5 162.5H614.5V160.5H612.5V162.5ZM600 162.5H598V164.5H600V162.5ZM600 125V123H598V125H600ZM625 125H627V123H625V125ZM625 162.5H623V164.5H625V162.5ZM662.5 162.5V164.5H664.5V162.5H662.5ZM662.5 125V123H660.5V125H662.5ZM687.5 125H689.5V123H687.5V125ZM687.5 187.5V189.5H689.5V187.5H687.5ZM675 187.5V185.5H673V187.5H675ZM675 200V202H677V200H675ZM614.5 200V187.5H610.5V200H614.5ZM612.5 189.5H662.5V185.5H612.5V189.5ZM664.5 187.5V175H660.5V187.5H664.5ZM662.5 173H612.5V177H662.5V173ZM614.5 175V162.5H610.5V175H614.5ZM612.5 160.5H600V164.5H612.5V160.5ZM602 162.5V125H598V162.5H602ZM600 127H625V123H600V127ZM623 125V162.5H627V125H623ZM625 164.5H662.5V160.5H625V164.5ZM664.5 162.5V125H660.5V162.5H664.5ZM662.5 127H687.5V123H662.5V127ZM685.5 125V187.5H689.5V125H685.5ZM687.5 185.5H675V189.5H687.5V185.5ZM673 187.5V200H677V187.5H673ZM675 198H612.5V202H675V198ZM700 200H698V202H700V200ZM700 187.5V185.5H698V187.5H700ZM787.5 187.5H789.5V185.5H787.5V187.5ZM787.5 200V202H789.5V200H787.5ZM702 200V187.5H698V200H702ZM700 189.5H787.5V185.5H700V189.5ZM785.5 187.5V200H789.5V187.5H785.5ZM787.5 198H700V202H787.5V198ZM12.5 287.5H10.5V289.5H12.5V287.5ZM12.5 275H14.5V273H12.5V275ZM0 275H-2V277H0V275ZM0 200V198H-2V200H0ZM25 200H27V198H25V200ZM25 225H23V227H25V225ZM75 225H77V223H75V225ZM75 237.5H73V239.5H75V237.5ZM87.5 237.5H89.5V235.5H87.5V237.5ZM87.5 275V277H89.5V275H87.5ZM75 275V273H73V275H75ZM75 287.5V289.5H77V287.5H75ZM25 275H23V277H25V275ZM62.5 275V277H64.5V275H62.5ZM62.5 237.5H64.5V235.5H62.5V237.5ZM25 237.5V235.5H23V237.5H25ZM14.5 287.5V275H10.5V287.5H14.5ZM12.5 273H0V277H12.5V273ZM2 275V200H-2V275H2ZM0 202H25V198H0V202ZM23 200V225H27V200H23ZM25 227H75V223H25V227ZM73 225V237.5H77V225H73ZM75 239.5H87.5V235.5H75V239.5ZM85.5 237.5V275H89.5V237.5H85.5ZM87.5 273H75V277H87.5V273ZM73 275V287.5H77V275H73ZM75 285.5H12.5V289.5H75V285.5ZM25 277H62.5V273H25V277ZM64.5 275V237.5H60.5V275H64.5ZM62.5 235.5H25V239.5H62.5V235.5ZM23 237.5V275H27V237.5H23ZM112.5 287.5H110.5V289.5H112.5V287.5ZM112.5 275H114.5V273H112.5V275ZM100 275H98V277H100V275ZM100 237.5V235.5H98V237.5H100ZM112.5 237.5V239.5H114.5V237.5H112.5ZM112.5 225V223H110.5V225H112.5ZM175 225H177V223H175V225ZM175 237.5H173V239.5H175V237.5ZM187.5 237.5H189.5V235.5H187.5V237.5ZM187.5 275V277H189.5V275H187.5ZM175 275V273H173V275H175ZM175 287.5V289.5H177V287.5H175ZM125 275H123V277H125V275ZM162.5 275V277H164.5V275H162.5ZM162.5 237.5H164.5V235.5H162.5V237.5ZM125 237.5V235.5H123V237.5H125ZM114.5 287.5V275H110.5V287.5H114.5ZM112.5 273H100V277H112.5V273ZM102 275V237.5H98V275H102ZM100 239.5H112.5V235.5H100V239.5ZM114.5 237.5V225H110.5V237.5H114.5ZM112.5 227H175V223H112.5V227ZM173 225V237.5H177V225H173ZM175 239.5H187.5V235.5H175V239.5ZM185.5 237.5V275H189.5V237.5H185.5ZM187.5 273H175V277H187.5V273ZM173 275V287.5H177V275H173ZM175 285.5H112.5V289.5H175V285.5ZM125 277H162.5V273H125V277ZM164.5 275V237.5H160.5V275H164.5ZM162.5 235.5H125V239.5H162.5V235.5ZM123 237.5V275H127V237.5H123ZM237.5 287.5H235.5V289.5H237.5V287.5ZM237.5 237.5H239.5V235.5H237.5V237.5ZM212.5 237.5H210.5V239.5H212.5V237.5ZM212.5 225V223H210.5V225H212.5ZM237.5 225V227H239.5V225H237.5ZM237.5 200V198H235.5V200H237.5ZM262.5 200H264.5V198H262.5V200ZM262.5 225H260.5V227H262.5V225ZM287.5 225H289.5V223H287.5V225ZM287.5 237.5V239.5H289.5V237.5H287.5ZM262.5 237.5V235.5H260.5V237.5H262.5ZM262.5 287.5V289.5H264.5V287.5H262.5ZM239.5 287.5V237.5H235.5V287.5H239.5ZM237.5 235.5H212.5V239.5H237.5V235.5ZM214.5 237.5V225H210.5V237.5H214.5ZM212.5 227H237.5V223H212.5V227ZM239.5 225V200H235.5V225H239.5ZM237.5 202H262.5V198H237.5V202ZM260.5 200V225H264.5V200H260.5ZM262.5 227H287.5V223H262.5V227ZM285.5 225V237.5H289.5V225H285.5ZM287.5 235.5H262.5V239.5H287.5V235.5ZM260.5 237.5V287.5H264.5V237.5H260.5ZM262.5 285.5H237.5V289.5H262.5V285.5Z" fill="black" mask="url(#path-1-outside-1_255_2)"/>
</g>
<defs>
<filter id="filter0_d_255_2" x="0" y="0" width="795.5" height="295.5" filterUnits="userSpaceOnUse" color-interpolation-filters="sRGB">
<feFlood flood-opacity="0" result="BackgroundImageFix"/>
<feColorMatrix in="SourceAlpha" type="matrix" values="0 0 0 0 0 0 0 0 0 0 0 0 0 0 0 0 0 0 127 0" result="hardAlpha"/>
<feOffset dx="8" dy="8"/>
<feComposite in2="hardAlpha" operator="out"/>
<feColorMatrix type="matrix" values="0 0 0 0 0 0 0 0 0 0 0 0 0 0 0 0 0 0 1 0"/>
<feBlend mode="normal" in2="BackgroundImageFix" result="effect1_dropShadow_255_2"/>
<feBlend mode="normal" in="SourceGraphic" in2="effect1_dropShadow_255_2" result="shape"/>
</filter>
<linearGradient id="paint0_linear_255_2" x1="400" y1="0" x2="400" y2="300" gradientUnits="userSpaceOnUse">
<stop offset="0.255" stop-color="#06CAF9"/>
<stop offset="0.63" stop-color="#FF44F8"/>
</linearGradient>
</defs>
</svg>
